<svg viewBox="0 0 308 48" fill="none" xmlns="http://www.w3.org/2000/svg"><path d="M61.224 34.7084V35.865L49.4964 35.865V34.7092C51.3632 34.7092 51.6026 34.2344 51.6026 31.9076L51.6026 8.79009C51.6026 6.46334 51.0282 6.17843 49.0177 6.17843V5L59.1178 5V18.5331C60.1231 16.4913 62.6122 14.4494 65.58 14.4494C70.0317 14.4494 72.3772 17.5359 72.3772 21.3347V31.9068C72.3772 34.2335 72.6166 34.7084 74.4834 34.7084V35.865H62.7558V34.7084C64.6226 34.7084 64.862 34.2335 64.862 31.9068V22.2369C64.862 19.0555 63.5217 17.8209 61.7506 17.8209C60.6975 17.8209 59.7401 18.4382 59.1178 19.7202L59.1178 31.9068C59.1178 34.2335 59.3572 34.7084 61.224 34.7084Z" fill="currentColor"></path><path fill-rule="evenodd" clip-rule="evenodd" d="M86.5609 35.8402L76.7015 35.8609V8.7939C76.7015 6.46715 76.127 6.18224 74.1166 6.18224V5L84.2167 5V17.9158C85.1741 16.4913 87.3281 14.4494 90.3917 14.4494C95.4657 14.4494 98.96 18.3907 98.96 24.1363C98.96 31.449 94.8598 35.8402 86.5609 35.8402ZM86.275 34.7011C88.6684 34.7011 91.2533 33.0993 91.2533 25.5609C91.2533 20.6225 89.7694 17.441 86.8973 17.441C85.9373 17.441 84.6819 18.1262 84.2167 19.6309V34.7037L86.275 34.7011Z" fill="currentColor"></path><path d="M43.277 32.2075C43.277 33.9644 41.9845 34.9616 40.0219 34.9616C36.7191 34.9616 34.6591 32.3499 34.1326 28.5512L32.9177 28.5512V35.8682L34.1336 35.8682C34.1336 35.2354 34.4596 34.9093 34.9861 34.9093C35.1953 34.9093 35.466 35.0486 35.8384 35.2401C36.6593 35.6623 37.9744 36.3386 40.2134 36.3386C44.9523 36.3386 48.686 33.537 48.686 29.0735C48.686 26.1769 46.9628 24.1826 44.2822 22.7105L40.8357 20.9061C39.4954 20.1939 38.4423 19.5291 38.4423 18.1995C38.4423 16.8224 39.4954 15.8253 41.1229 15.8253C44.0907 15.8253 45.8855 18.0013 46.1255 21.1198H47.2979V14.7806H46.1114C46.1114 15.3542 45.7285 15.5923 45.154 15.5923C44.8873 15.5923 44.5728 15.4535 44.1629 15.2725C43.3961 14.9341 42.2954 14.4482 40.5485 14.4482C36.4319 14.4482 32.746 17.0599 32.746 21.191C32.746 23.8977 34.1342 25.797 36.4797 26.9842L40.1655 28.8835C42.0324 29.8807 43.277 30.5455 43.277 32.2075Z" fill="currentColor"></path><path fill-rule="evenodd" clip-rule="evenodd" d="M9.2385 34.7736V35.8658H0L0 34.7736C2.39339 34.7736 3.35075 34.2513 4.21237 31.972L13.2115 7.04257L17.4718 7.04257L27.3804 31.972C28.3378 34.2988 28.8165 34.7736 30.8748 34.7736V35.8658H16.3503V34.7736C19.7959 34.7736 20.0866 34.4658 19.0514 31.972L16.4187 25.1342L8.42475 25.1342L6.07922 31.8296C5.39425 34.0945 5.54393 34.7736 9.2385 34.7736ZM12.2063 14.3077L8.9513 23.6622L15.8443 23.6622L12.2063 14.3077Z" fill="currentColor"></path><path d="M109.506 34.7315L101.56 18.5181C100.555 16.4288 100.268 16.0489 98.6883 16.0489V14.8829L111.134 14.8829V16.0489C108.582 16.0489 108.92 16.8108 109.613 18.3742L109.617 18.3835C109.644 18.443 109.671 18.5037 109.698 18.5656L113.432 26.8965L116.83 19.2176C117.873 16.7603 118.134 16.0361 114.485 16.0361V14.8829L122 14.8829V16.0361C119.954 16.0361 119.896 16.1658 118.947 18.2953C118.831 18.5558 118.702 18.8463 118.554 19.1701L111.804 33.5919C109.591 38.258 109.038 39.4661 107.423 42.2079C106.839 43.1609 105.778 44 104.32 44C102.379 44 100.805 42.4389 100.805 40.5133C100.805 38.5876 102.379 37.0265 104.32 37.0265C105.561 37.0265 106.652 37.6645 107.278 38.628L109.506 34.7315Z" fill="currentColor"></path><path d="M265.514 46.8184V1.16626H307.349V11.4706H279.958V19.0358H301.038V28.1663H279.958V36.5141H308V46.8184H265.514Z" fill="currentColor"></path><path d="M205.014 46.8187V1.1665H218.026L241.189 27.5795H241.514V1.1665H255.568V46.8187H242.555L219.393 20.6013H219.067V46.8187H205.014Z" fill="currentColor"></path><path d="M169.148 48C163.336 48 158.218 46.9348 153.793 44.8044C149.369 42.6739 145.964 39.7826 143.578 36.1304C141.193 32.4783 140 28.4348 140 24C140 19.5652 141.193 15.5217 143.578 11.8696C145.964 8.21739 149.369 5.32609 153.793 3.19565C158.218 1.06522 163.336 0 169.148 0C175.004 0 180.144 1.06522 184.568 3.19565C188.993 5.32609 192.398 8.21739 194.783 11.8696C197.169 15.5217 198.362 19.5652 198.362 24C198.362 28.4348 197.169 32.4783 194.783 36.1304C192.398 39.7826 188.993 42.6739 184.568 44.8044C180.144 46.9348 175.004 48 169.148 48ZM169.148 36.6522C172.011 36.6522 174.549 36.1087 176.761 35.0217C179.016 33.9348 180.773 32.4348 182.031 30.5217C183.332 28.6087 183.983 26.4348 183.983 24C183.983 21.5652 183.332 19.3913 182.031 17.4783C180.773 15.5652 179.016 14.0652 176.761 12.9783C174.549 11.8913 172.011 11.3478 169.148 11.3478C166.329 11.3478 163.791 11.8913 161.536 12.9783C159.324 14.0652 157.567 15.5652 156.266 17.4783C155.008 19.3913 154.379 21.5652 154.379 24C154.379 26.4348 155.008 28.6087 156.266 30.5217C157.567 32.4348 159.324 33.9348 161.536 35.0217C163.791 36.1087 166.329 36.6522 169.148 36.6522Z" fill="currentColor"></path></svg>